PathFileType	4	(X/Y/Z)	pose_F01_0-96.trc
DataRate	CameraRate	NumFrames	NumMarkers	Units	OrigDataRate	OrigDataStartFrame	OrigNumFrames
30	30	5	21	m	30	72	96
Frame#	Time	CHip			RHip			RKnee			RAnkle			RBigToe			RSmallToe			RHeel			LHip			LKnee			LAnkle			LBigToe			LSmallToe			LHeel			Neck			Nose			RShoulder			RElbow			RWrist			LShoulder			LElbow			LWrist			
		X1	Y1	Z1	X2	Y2	Z2	X3	Y3	Z3	X4	Y4	Z4	X5	Y5	Z5	X6	Y6	Z6	X7	Y7	Z7	X8	Y8	Z8	X9	Y9	Z9	X10	Y10	Z10	X11	Y11	Z11	X12	Y12	Z12	X13	Y13	Z13	X14	Y14	Z14	X15	Y15	Z15	X16	Y16	Z16	X17	Y17	Z17	X18	Y18	Z18	X19	Y19	Z19	X20	Y20	Z20	X21	Y21	Z21	
72	2.4	-0.18971192471356443	1.8718080837716766	-0.5619684262131471	-0.20602248481023996	1.870297980409555	-0.5048200351320631	-0.18787425250039888	1.719320125067375	-0.4840985112290237	-0.17925691791209247	1.5691656031706047	-0.47244472555289724							-0.1723105670655914	1.5568853695122828	-0.4742100080615988	-0.17228545132844378	1.8756623639027217	-0.6192481097476987	-0.16765628937524593	1.7202845102576005	-0.5982905833007865	-0.16279536042444445	1.5735015961794223	-0.5646373747220931	-0.19898417524726622	1.5357982975961832	-0.6003631641359798	-0.18154753146364933	1.5421997210755907	-0.6139471025859541	-0.1584369516406158	1.5596826234811065	-0.5591574714840711	-0.17509977812790498	2.042143856770261	-0.568924119715461	-0.21118541045474135	2.110995711115942	-0.5963658065156799	-0.19463627760016677	2.0394315977105175	-0.4888073408989031	-0.1985712516255952	1.9527207514801699	-0.4193537866350841	-0.23059165187351402	1.8806634114275316	-0.37102010984868977	-0.15229893321902752	2.046127822649581	-0.6547554542349896	-1.5095238072924966	1.8723458978773346	0.7872086125684896	-0.12013630385083694	1.900264094586311	-0.7589116213261166
73	2.433333333333333	-0.18767157553722472	1.872198362182895	-0.5642142812413224	-0.2041288605272175	1.8693311599733058	-0.5068585625326637	-0.1889578421461679	1.7201197636277064	-0.48737374335835376	-0.17900573608151568	1.5702576556366579	-0.47296353661860696							-0.17206968207152895	1.555710889497796	-0.47420908098445247	-0.17331549664183324	1.8750089657007398	-0.6222526399301488	-0.1657619819996664	1.7192857099975605	-0.6002107864259363	-0.15981520674149033	1.573355257254399	-0.5634976769979937	-0.20051978970947446	1.5341241628657605	-0.5941085687181442	-0.18613982546017946	1.5405705975641697	-0.6087559615397152	-0.15565228551217916	1.5582390813110967	-0.5575837945513963	-0.17519712730218034	2.0410227904758123	-0.5690270431775215	-0.21117198091204692	2.1109889133356354	-0.5963902426769928	-0.19475448886806063	2.038237106258817	-0.4889096183075757	-0.19878595381223718	1.9554083988842612	-0.4200450762274149	-0.23893478594000447	1.8851674631005197	-0.3575148139230422	-0.15235460155726155	2.0437967417173026	-0.6544686043121722	-1.4821075677981488	1.8737548626121625	0.7407440415095685	-0.11452611038753284	1.9084618039764283	-0.7732570652855609
74	2.466666666666667	-0.18763804582495577	1.872016444035737	-0.5641536753149108	-0.20387513598233348	1.8690488399907168	-0.5067260288307263	-0.18746723334268556	1.721819059713146	-0.48488897208699355	-0.1819910050390005	1.5700242091680092	-0.47402012271175115							-0.17426880993758498	1.5567166586181973	-0.47174427966709487	-0.17240113607984114	1.8744353625380235	-0.6191289271311279	-0.1673905019893562	1.7214780679102006	-0.598630822765778	-0.1628391753896676	1.5734095198603528	-0.5645736462017239	-0.20002742544514268	1.5342534148989055	-0.5949798939215896	-0.18372962536004453	1.542052185275409	-0.6116143514180321	-0.1585490379571961	1.5578860299907538	-0.5585547220993909	-0.17320652772376063	2.041076210066087	-0.5711553627503374	-0.21117742602635214	2.1110006806000183	-0.5963826436317508	-0.19285200018668988	2.039514871954605	-0.49152060745840553	-0.1988036231967256	1.9554448190476588	-0.4200444786337916	-0.23943166772558477	1.8901836091331283	-0.3527400641758769	-0.15231800747668023	2.043770832216215	-0.6544449867758898	-1.5023096946781147	1.8741955643968076	0.7739539575986322	-0.10936311821032531	1.9107354789599993	-0.775497194531361
75	2.5	-0.18748833598037493	1.8735376275033218	-0.5643418712617908	-0.20398392767219262	1.8706868451927634	-0.5070069745465692	-0.1874536821392477	1.7218893178801895	-0.48488629626504043	-0.17891295020050293	1.570239541915759	-0.4731353589336063							-0.17155919178278634	1.5560571335607183	-0.47488658326086486	-0.17224583211263056	1.8760754327808817	-0.6192809681412896	-0.16747624410868578	1.7217982193382824	-0.5986490143907194	-0.1618674348355907	1.5733023571591247	-0.5613117708104571	-0.19997991165939483	1.5341495343905214	-0.5950739375453619	-0.1837140152177316	1.542011795202343	-0.6116036659883822	-0.15772401164399258	1.5582072814380028	-0.555393674910115	-0.17325573134268316	2.041068712151387	-0.5711545513524217	-0.21116832034558727	2.1109851517560223	-0.59638991663224	-0.19286697969448263	2.0382773933234146	-0.49103645000528384	-0.19872706856272876	1.9541424872868887	-0.41958872974794226	-0.24033055073318596	1.8897139082331873	-0.355931880515875	-0.152260466740384	2.0449809244022887	-0.6543541705385036	-1.4999458556204173	1.872491714862713	0.7707386543345662	-0.1113228227729529	1.910247538590364	-0.7727340911875727
76	2.533333333333333	-0.18765631864775403	1.869841657403588	-0.5638202437340558	-0.20400347586371942	1.868224372872265	-0.5066063896548054	-0.18742912095915862	1.7216455832028557	-0.4848779654573258	-0.17910345768454897	1.570849611764414	-0.47303755240096335							-0.1722375718741787	1.5591912297424906	-0.47451784628842586	-0.17226399962369987	1.873369819753804	-0.6189272162329917	-0.16744974968032098	1.721495512880857	-0.5986512971781864	-0.1609617343777072	1.5747355956310713	-0.566474226182929	-0.20034237982798797	1.533849884619716	-0.5941534033339695	-0.18400022302515132	1.5408444745182064	-0.6109573592384967	-0.15750700610322274	1.5597304711107285	-0.5560385270943358	-0.1732341346763656	2.0410341633827187	-0.5711573332222323	-0.21116941067729927	2.110984265844126	-0.5964077650773076	-0.19288427723993287	2.0394491785546824	-0.4915322091072659	-0.19872449190068975	1.9501595034684982	-0.4189326426515931	-0.23864130874162606	1.8833175086878708	-0.3658523271308404	-0.15233558365500552	2.043744750572156	-0.6544408169301994	-1.5095521207776748	1.8724955300475872	0.7871447396766431	-0.1149613922083334	1.9020814482141903	-0.7519420204871174
